<?xml version="1.0" encoding="UTF-8" standalone="no"?>
<!DOCTYPE svg PUBLIC "-//W3C//DTD SVG 1.1//EN"
 "http://www.w3.org/Graphics/SVG/1.1/DTD/svg11.dtd">
<!-- Generated by graphviz version 2.44.0 (20200408.0750)
 -->
<!-- Pages: 1 -->
<svg width="3059pt" height="1178pt"
 viewBox="0.00 0.00 3058.61 1178.00" xmlns="http://www.w3.org/2000/svg" xmlns:xlink="http://www.w3.org/1999/xlink">
<g id="graph0" class="graph" transform="scale(1 1) rotate(0) translate(4 1174)">
<polygon fill="white" stroke="transparent" points="-4,4 -4,-1174 3054.61,-1174 3054.61,4 -4,4"/>
<g id="clust1" class="cluster">
<title>cluster&#45;nid&#45;02</title>
<polygon fill="none" stroke="#cccccc" points="791.94,-1046 791.94,-1116 1250.89,-1116 1250.89,-1046 791.94,-1046"/>
</g>
<g id="clust2" class="cluster">
<title>cluster&#45;nid&#45;03</title>
<polygon fill="none" stroke="#cccccc" points="791.94,-912 791.94,-982 1250.89,-982 1250.89,-912 791.94,-912"/>
</g>
<g id="clust5" class="cluster">
<title>cluster&#45;nid&#45;06</title>
<polygon fill="none" stroke="#cccccc" points="8,-997 8,-1067 154.11,-1067 154.11,-997 8,-997"/>
</g>
<g id="clust7" class="cluster">
<title>cluster&#45;nid&#45;08</title>
<polygon fill="none" stroke="#cccccc" points="2241.46,-196 2241.46,-266 2660.85,-266 2660.85,-196 2241.46,-196"/>
</g>
<g id="clust8" class="cluster">
<title>cluster&#45;nid&#45;09</title>
<polygon fill="none" stroke="#cccccc" points="2241.46,-618 2241.46,-688 2660.85,-688 2660.85,-618 2241.46,-618"/>
</g>
<g id="clust10" class="cluster">
<title>cluster&#45;nid&#45;0b</title>
<polygon fill="none" stroke="#cccccc" points="746.11,-425 746.11,-743 1265.53,-743 1265.53,-425 746.11,-425"/>
</g>
<g id="clust11" class="cluster">
<title>cluster&#45;nid&#45;0c</title>
<polygon fill="none" stroke="#cccccc" points="1505.89,-986 1505.89,-1112 1984.96,-1112 1984.96,-986 1505.89,-986"/>
</g>
<g id="clust12" class="cluster">
<title>cluster&#45;nid&#45;0d</title>
<polygon fill="none" stroke="#cccccc" points="1505.89,-852 1505.89,-978 1984.96,-978 1984.96,-852 1505.89,-852"/>
</g>
<g id="clust14" class="cluster">
<title>cluster&#45;nid&#45;0f</title>
<polygon fill="none" stroke="#cccccc" points="2186.57,-808 2186.57,-886 2665.61,-886 2665.61,-808 2186.57,-808"/>
</g>
<g id="clust18" class="cluster">
<title>cluster&#45;nid&#45;12&#45;out</title>
<polygon fill="none" stroke="#cccccc" points="1125.89,-187 1125.89,-271 1305.89,-271 1305.89,-187 1125.89,-187"/>
</g>
<g id="clust20" class="cluster">
<title>cluster&#45;nid&#45;14&#45;in</title>
<polygon fill="none" stroke="#cccccc" points="2186.96,-1078 2186.96,-1162 2365.96,-1162 2365.96,-1078 2186.96,-1078"/>
</g>
<g id="clust24" class="cluster">
<title>cluster&#45;nid&#45;17&#45;in</title>
<polygon fill="none" stroke="#cccccc" points="2865.61,-805 2865.61,-889 3042.61,-889 3042.61,-805 2865.61,-805"/>
</g>
<g id="clust27" class="cluster">
<title>cluster&#45;nid&#45;18&#45;out</title>
<polygon fill="none" stroke="#cccccc" points="361.61,-287 361.61,-371 538.61,-371 538.61,-287 361.61,-287"/>
</g>
<g id="clust29" class="cluster">
<title>cluster&#45;nid&#45;19&#45;out</title>
<polygon fill="none" stroke="#cccccc" points="361.61,-805 361.61,-889 538.61,-889 538.61,-805 361.61,-805"/>
</g>
<g id="clust31" class="cluster">
<title>cluster&#45;nid&#45;1a&#45;out</title>
<polygon fill="none" stroke="#cccccc" points="361.61,-713 361.61,-797 538.61,-797 538.61,-713 361.61,-713"/>
</g>
<g id="clust32" class="cluster">
<title>cluster&#45;nid&#45;1b&#45;in</title>
<polygon fill="none" stroke="#cccccc" points="2184.96,-986 2184.96,-1070 2651.79,-1070 2651.79,-986 2184.96,-986"/>
</g>
<g id="clust33" class="cluster">
<title>cluster&#45;nid&#45;1b&#45;out</title>
<polygon fill="none" stroke="#cccccc" points="46.05,-379 46.05,-463 541.61,-463 541.61,-379 46.05,-379"/>
</g>
<g id="clust36" class="cluster">
<title>cluster&#45;nid&#45;1d&#45;out</title>
<polygon fill="none" stroke="#cccccc" points="354.11,-195 354.11,-279 546.11,-279 546.11,-195 354.11,-195"/>
</g>
<g id="clust37" class="cluster">
<title>cluster&#45;nid&#45;1e&#45;in</title>
<polygon fill="none" stroke="#cccccc" points="361.61,-990 361.61,-1074 538.61,-1074 538.61,-990 361.61,-990"/>
</g>
<g id="clust41" class="cluster">
<title>cluster&#45;nid&#45;21&#45;in</title>
<polygon fill="none" stroke="#cccccc" points="2186.96,-894 2186.96,-978 2365.96,-978 2365.96,-894 2186.96,-894"/>
</g>
<g id="clust43" class="cluster">
<title>cluster&#45;nid&#45;22</title>
<polygon fill="none" stroke="#cccccc" points="1505.89,-462 1505.89,-844 1984.96,-844 1984.96,-462 1505.89,-462"/>
</g>
<g id="clust44" class="cluster">
<title>cluster&#45;nid&#45;23</title>
<polygon fill="none" stroke="#cccccc" points="1505.89,-8 1505.89,-454 1984.96,-454 1984.96,-8 1505.89,-8"/>
</g>
<!-- nid&#45;02 -->
<g id="node1" class="node">
<title>nid&#45;02</title>
<ellipse fill="none" stroke="blue" cx="836" cy="-1081" rx="36.12" ry="26.74"/>
<text text-anchor="middle" x="836" y="-1084.8" font-family="Times,serif" font-size="14.00">0x02</text>
<text text-anchor="middle" x="836" y="-1069.8" font-family="Times,serif" font-size="14.00">Stereo</text>
</g>
<!-- nid&#45;02&#45;ampout -->
<g id="node2" class="node">
<title>nid&#45;02&#45;ampout</title>
<polygon fill="none" stroke="#0000ff" points="1242.89,-1081 1202.39,-1099 1202.39,-1063 1242.89,-1081"/>
</g>
<!-- nid&#45;02&#45;&gt;nid&#45;02&#45;ampout -->
<g id="edge1" class="edge">
<title>nid&#45;02&#45;&gt;nid&#45;02&#45;ampout</title>
<path fill="none" stroke="#0000ff" d="M872.21,-1081C950.85,-1081 1138.42,-1081 1197.06,-1081"/>
<polygon fill="#0000ff" stroke="#0000ff" points="1197.32,-1082.75 1202.32,-1081 1197.32,-1079.25 1197.32,-1082.75"/>
</g>
<!-- nid&#45;0c&#45;ampin&#45;2 -->
<g id="node24" class="node">
<title>nid&#45;0c&#45;ampin&#45;2</title>
<polygon fill="none" stroke="#0000ff" points="1677.57,-1081 1554.89,-1104 1554.89,-1058 1677.57,-1081"/>
<text text-anchor="middle" x="1595.79" y="-1077.3" font-family="Times,serif" font-size="14.00">0 (0x02)</text>
</g>
<!-- nid&#45;02&#45;ampout&#45;&gt;nid&#45;0c&#45;ampin&#45;2 -->
<g id="edge19" class="edge">
<title>nid&#45;02&#45;ampout&#45;&gt;nid&#45;0c&#45;ampin&#45;2</title>
<path fill="none" stroke="#333333" d="M1243.17,-1081C1305.53,-1081 1463.31,-1081 1544.63,-1081"/>
<polygon fill="#333333" stroke="#333333" points="1544.63,-1084.5 1554.63,-1081 1544.63,-1077.5 1544.63,-1084.5"/>
</g>
<!-- nid&#45;03 -->
<g id="node3" class="node">
<title>nid&#45;03</title>
<ellipse fill="none" stroke="blue" cx="836" cy="-947" rx="36.12" ry="26.74"/>
<text text-anchor="middle" x="836" y="-950.8" font-family="Times,serif" font-size="14.00">0x03</text>
<text text-anchor="middle" x="836" y="-935.8" font-family="Times,serif" font-size="14.00">Stereo</text>
</g>
<!-- nid&#45;03&#45;ampout -->
<g id="node4" class="node">
<title>nid&#45;03&#45;ampout</title>
<polygon fill="none" stroke="#0000ff" points="1242.89,-947 1202.39,-965 1202.39,-929 1242.89,-947"/>
</g>
<!-- nid&#45;03&#45;&gt;nid&#45;03&#45;ampout -->
<g id="edge2" class="edge">
<title>nid&#45;03&#45;&gt;nid&#45;03&#45;ampout</title>
<path fill="none" stroke="#0000ff" d="M872.21,-947C950.85,-947 1138.42,-947 1197.06,-947"/>
<polygon fill="#0000ff" stroke="#0000ff" points="1197.32,-948.75 1202.32,-947 1197.32,-945.25 1197.32,-948.75"/>
</g>
<!-- nid&#45;0d&#45;ampin&#45;3 -->
<g id="node27" class="node">
<title>nid&#45;0d&#45;ampin&#45;3</title>
<polygon fill="none" stroke="#0000ff" points="1677.57,-947 1554.89,-970 1554.89,-924 1677.57,-947"/>
<text text-anchor="middle" x="1595.79" y="-943.3" font-family="Times,serif" font-size="14.00">0 (0x03)</text>
</g>
<!-- nid&#45;03&#45;ampout&#45;&gt;nid&#45;0d&#45;ampin&#45;3 -->
<g id="edge23" class="edge">
<title>nid&#45;03&#45;ampout&#45;&gt;nid&#45;0d&#45;ampin&#45;3</title>
<path fill="none" stroke="#333333" d="M1243.17,-947C1305.53,-947 1463.31,-947 1544.63,-947"/>
<polygon fill="#333333" stroke="#333333" points="1544.63,-950.5 1554.63,-947 1544.63,-943.5 1544.63,-950.5"/>
</g>
<!-- nid&#45;06 -->
<g id="node5" class="node">
<title>nid&#45;06</title>
<ellipse fill="none" stroke="blue" cx="81.05" cy="-1032" rx="65.11" ry="26.74"/>
<text text-anchor="middle" x="81.05" y="-1035.8" font-family="Times,serif" font-size="14.00">0x06</text>
<text text-anchor="middle" x="81.05" y="-1020.8" font-family="Times,serif" font-size="14.00">Stereo Digital</text>
</g>
<!-- nid&#45;1e&#45;in -->
<g id="node37" class="node">
<title>nid&#45;1e&#45;in</title>
<polygon fill="none" stroke="green" points="530.61,-1066 369.61,-1066 369.61,-998 530.61,-998 530.61,-1066"/>
<text text-anchor="middle" x="450.11" y="-1050.8" font-family="Times,serif" font-size="14.00">0x1e</text>
<text text-anchor="middle" x="450.11" y="-1035.8" font-family="Times,serif" font-size="14.00">[N/A] Speaker at Ext Rear</text>
<text text-anchor="middle" x="450.11" y="-1020.8" font-family="Times,serif" font-size="14.00">Stereo Digital</text>
<text text-anchor="middle" x="450.11" y="-1005.8" font-family="Times,serif" font-size="14.00">OUT Detect</text>
</g>
<!-- nid&#45;06&#45;&gt;nid&#45;1e&#45;in -->
<g id="edge33" class="edge">
<title>nid&#45;06&#45;&gt;nid&#45;1e&#45;in</title>
<path fill="none" stroke="#333333" d="M146.41,-1032C205.35,-1032 293.18,-1032 359.07,-1032"/>
<polygon fill="#333333" stroke="#333333" points="359.45,-1035.5 369.45,-1032 359.45,-1028.5 359.45,-1035.5"/>
</g>
<!-- nid&#45;08 -->
<g id="node6" class="node">
<title>nid&#45;08</title>
<ellipse fill="none" stroke="red" cx="2616.79" cy="-231" rx="36.12" ry="26.74"/>
<text text-anchor="middle" x="2616.79" y="-234.8" font-family="Times,serif" font-size="14.00">0x08</text>
<text text-anchor="middle" x="2616.79" y="-219.8" font-family="Times,serif" font-size="14.00">Stereo</text>
</g>
<!-- nid&#45;08&#45;ampin -->
<g id="node7" class="node">
<title>nid&#45;08&#45;ampin</title>
<polygon fill="none" stroke="#7e7edc" points="2303.46,-231 2262.96,-249 2262.96,-213 2303.46,-231"/>
</g>
<!-- nid&#45;08&#45;ampin&#45;&gt;nid&#45;08 -->
<g id="edge3" class="edge">
<title>nid&#45;08&#45;ampin&#45;&gt;nid&#45;08</title>
<path fill="none" stroke="#7e7edc" d="M2303.73,-231C2362.51,-231 2505.01,-231 2575.26,-231"/>
<polygon fill="#7e7edc" stroke="#7e7edc" points="2575.6,-232.75 2580.6,-231 2575.6,-229.25 2575.6,-232.75"/>
</g>
<!-- nid&#45;23 -->
<g id="node8" class="node">
<title>nid&#45;23</title>
<polygon fill="none" stroke="black" points="1977.1,-231 1956.21,-262.05 1914.43,-262.05 1893.54,-231 1914.43,-199.95 1956.21,-199.95 1977.1,-231"/>
<text text-anchor="middle" x="1935.32" y="-234.8" font-family="Times,serif" font-size="14.00">0x23</text>
<text text-anchor="middle" x="1935.32" y="-219.8" font-family="Times,serif" font-size="14.00">Stereo</text>
</g>
<!-- nid&#45;23&#45;&gt;nid&#45;08&#45;ampin -->
<g id="edge4" class="edge">
<title>nid&#45;23&#45;&gt;nid&#45;08&#45;ampin</title>
<path fill="none" stroke="#333333" d="M1977.23,-231C2049.24,-231 2196.35,-231 2252.75,-231"/>
<polygon fill="#333333" stroke="#333333" points="2252.78,-234.5 2262.78,-231 2252.78,-227.5 2252.78,-234.5"/>
</g>
<!-- nid&#45;09 -->
<g id="node9" class="node">
<title>nid&#45;09</title>
<ellipse fill="none" stroke="red" cx="2616.79" cy="-653" rx="36.12" ry="26.74"/>
<text text-anchor="middle" x="2616.79" y="-656.8" font-family="Times,serif" font-size="14.00">0x09</text>
<text text-anchor="middle" x="2616.79" y="-641.8" font-family="Times,serif" font-size="14.00">Stereo</text>
</g>
<!-- nid&#45;09&#45;ampin -->
<g id="node10" class="node">
<title>nid&#45;09&#45;ampin</title>
<polygon fill="none" stroke="#c8c8c8" points="2303.46,-653 2262.96,-671 2262.96,-635 2303.46,-653"/>
</g>
<!-- nid&#45;09&#45;ampin&#45;&gt;nid&#45;09 -->
<g id="edge5" class="edge">
<title>nid&#45;09&#45;ampin&#45;&gt;nid&#45;09</title>
<path fill="none" stroke="#c8c8c8" d="M2303.73,-653C2362.51,-653 2505.01,-653 2575.26,-653"/>
<polygon fill="#c8c8c8" stroke="#c8c8c8" points="2575.6,-654.75 2580.6,-653 2575.6,-651.25 2575.6,-654.75"/>
</g>
<!-- nid&#45;22 -->
<g id="node11" class="node">
<title>nid&#45;22</title>
<polygon fill="none" stroke="black" points="1977.1,-653 1956.21,-684.05 1914.43,-684.05 1893.54,-653 1914.43,-621.95 1956.21,-621.95 1977.1,-653"/>
<text text-anchor="middle" x="1935.32" y="-656.8" font-family="Times,serif" font-size="14.00">0x22</text>
<text text-anchor="middle" x="1935.32" y="-641.8" font-family="Times,serif" font-size="14.00">Stereo</text>
</g>
<!-- nid&#45;22&#45;&gt;nid&#45;09&#45;ampin -->
<g id="edge6" class="edge">
<title>nid&#45;22&#45;&gt;nid&#45;09&#45;ampin</title>
<path fill="none" stroke="#333333" d="M1977.23,-653C2049.24,-653 2196.35,-653 2252.75,-653"/>
<polygon fill="#333333" stroke="#333333" points="2252.78,-656.5 2262.78,-653 2252.78,-649.5 2252.78,-656.5"/>
</g>
<!-- nid&#45;0b -->
<g id="node12" class="node">
<title>nid&#45;0b</title>
<polygon fill="none" stroke="black" points="1257.68,-616 1236.78,-647.05 1195,-647.05 1174.11,-616 1195,-584.95 1236.78,-584.95 1257.68,-616"/>
<text text-anchor="middle" x="1215.89" y="-619.8" font-family="Times,serif" font-size="14.00">0x0b</text>
<text text-anchor="middle" x="1215.89" y="-604.8" font-family="Times,serif" font-size="14.00">Stereo</text>
</g>
<!-- nid&#45;0c&#45;ampin&#45;11 -->
<g id="node25" class="node">
<title>nid&#45;0c&#45;ampin&#45;11</title>
<polygon fill="none" stroke="#c8c8c8" points="1677.57,-1017 1554.89,-1040 1554.89,-994 1677.57,-1017"/>
<text text-anchor="middle" x="1595.79" y="-1013.3" font-family="Times,serif" font-size="14.00">1 (0x0b)</text>
</g>
<!-- nid&#45;0b&#45;&gt;nid&#45;0c&#45;ampin&#45;11 -->
<g id="edge20" class="edge">
<title>nid&#45;0b&#45;&gt;nid&#45;0c&#45;ampin&#45;11</title>
<path fill="none" stroke="#333333" d="M1233.81,-647.28C1272.88,-716.8 1376.06,-885.58 1505.89,-982 1517.57,-990.67 1531.68,-997.51 1545.19,-1002.75"/>
<polygon fill="#333333" stroke="#333333" points="1544.28,-1006.15 1554.87,-1006.29 1546.68,-999.57 1544.28,-1006.15"/>
</g>
<!-- nid&#45;0d&#45;ampin&#45;11 -->
<g id="node28" class="node">
<title>nid&#45;0d&#45;ampin&#45;11</title>
<polygon fill="none" stroke="#c8c8c8" points="1677.57,-883 1554.89,-906 1554.89,-860 1677.57,-883"/>
<text text-anchor="middle" x="1595.79" y="-879.3" font-family="Times,serif" font-size="14.00">1 (0x0b)</text>
</g>
<!-- nid&#45;0b&#45;&gt;nid&#45;0d&#45;ampin&#45;11 -->
<g id="edge24" class="edge">
<title>nid&#45;0b&#45;&gt;nid&#45;0d&#45;ampin&#45;11</title>
<path fill="none" stroke="#333333" d="M1241.64,-640.27C1289.34,-685.98 1398.77,-785.84 1505.89,-848 1518.13,-855.1 1532.08,-861.35 1545.24,-866.54"/>
<polygon fill="#333333" stroke="#333333" points="1544.06,-869.83 1554.66,-870.12 1546.56,-863.29 1544.06,-869.83"/>
</g>
<!-- nid&#45;22&#45;ampin&#45;11 -->
<g id="node44" class="node">
<title>nid&#45;22&#45;ampin&#45;11</title>
<polygon fill="none" stroke="#c8c8c8" points="1677.57,-685 1554.89,-708 1554.89,-662 1677.57,-685"/>
<text text-anchor="middle" x="1595.79" y="-681.3" font-family="Times,serif" font-size="14.00">5 (0x0b)</text>
</g>
<!-- nid&#45;0b&#45;&gt;nid&#45;22&#45;ampin&#45;11 -->
<g id="edge47" class="edge">
<title>nid&#45;0b&#45;&gt;nid&#45;22&#45;ampin&#45;11</title>
<path fill="none" stroke="#333333" d="M1253.47,-622.68C1321.54,-635.11 1467.74,-661.8 1544.84,-675.88"/>
<polygon fill="#333333" stroke="#333333" points="1544.33,-679.34 1554.79,-677.7 1545.58,-672.46 1544.33,-679.34"/>
</g>
<!-- nid&#45;23&#45;ampin&#45;11 -->
<g id="node50" class="node">
<title>nid&#45;23&#45;ampin&#45;11</title>
<polygon fill="none" stroke="#c8c8c8" points="1677.57,-295 1554.89,-318 1554.89,-272 1677.57,-295"/>
<text text-anchor="middle" x="1595.79" y="-291.3" font-family="Times,serif" font-size="14.00">5 (0x0b)</text>
</g>
<!-- nid&#45;0b&#45;&gt;nid&#45;23&#45;ampin&#45;11 -->
<g id="edge60" class="edge">
<title>nid&#45;0b&#45;&gt;nid&#45;23&#45;ampin&#45;11</title>
<path fill="none" stroke="#333333" d="M1238.4,-587.22C1282.54,-530.01 1389.07,-401.14 1505.89,-327 1517.82,-319.43 1531.78,-313.34 1545.05,-308.58"/>
<polygon fill="#333333" stroke="#333333" points="1546.22,-311.88 1554.56,-305.35 1543.96,-305.25 1546.22,-311.88"/>
</g>
<!-- nid&#45;0b&#45;ampin&#45;24 -->
<g id="node13" class="node">
<title>nid&#45;0b&#45;ampin&#45;24</title>
<polygon fill="none" stroke="#c8c8c8" points="917.79,-520 795.11,-543 795.11,-497 917.79,-520"/>
<text text-anchor="middle" x="836" y="-516.3" font-family="Times,serif" font-size="14.00">0 (0x18)</text>
</g>
<!-- nid&#45;0b&#45;ampin&#45;24&#45;&gt;nid&#45;0b -->
<g id="edge7" class="edge">
<title>nid&#45;0b&#45;ampin&#45;24&#45;&gt;nid&#45;0b</title>
<path fill="none" stroke="#c8c8c8" d="M871.54,-528.77C941.64,-546.58 1100.29,-586.89 1174.81,-605.82"/>
<polygon fill="#c8c8c8" stroke="#c8c8c8" points="1174.75,-607.61 1180.03,-607.14 1175.61,-604.22 1174.75,-607.61"/>
</g>
<!-- nid&#45;0b&#45;ampin&#45;25 -->
<g id="node14" class="node">
<title>nid&#45;0b&#45;ampin&#45;25</title>
<polygon fill="none" stroke="#c8c8c8" points="917.79,-712 795.11,-735 795.11,-689 917.79,-712"/>
<text text-anchor="middle" x="836" y="-708.3" font-family="Times,serif" font-size="14.00">1 (0x19)</text>
</g>
<!-- nid&#45;0b&#45;ampin&#45;25&#45;&gt;nid&#45;0b -->
<g id="edge8" class="edge">
<title>nid&#45;0b&#45;ampin&#45;25&#45;&gt;nid&#45;0b</title>
<path fill="none" stroke="#c8c8c8" d="M871.54,-703.23C941.64,-685.42 1100.29,-645.11 1174.81,-626.18"/>
<polygon fill="#c8c8c8" stroke="#c8c8c8" points="1175.61,-627.78 1180.03,-624.86 1174.75,-624.39 1175.61,-627.78"/>
</g>
<!-- nid&#45;0b&#45;ampin&#45;26 -->
<g id="node15" class="node">
<title>nid&#45;0b&#45;ampin&#45;26</title>
<polygon fill="none" stroke="#c8c8c8" points="916.69,-648 795.66,-671 795.66,-625 916.69,-648"/>
<text text-anchor="middle" x="836" y="-644.3" font-family="Times,serif" font-size="14.00">2 (0x1a)</text>
</g>
<!-- nid&#45;0b&#45;ampin&#45;26&#45;&gt;nid&#45;0b -->
<g id="edge9" class="edge">
<title>nid&#45;0b&#45;ampin&#45;26&#45;&gt;nid&#45;0b</title>
<path fill="none" stroke="#c8c8c8" d="M892.35,-643.31C967.88,-636.92 1101.71,-625.58 1170.83,-619.73"/>
<polygon fill="#c8c8c8" stroke="#c8c8c8" points="1171.27,-621.45 1176.1,-619.28 1170.97,-617.96 1171.27,-621.45"/>
</g>
<!-- nid&#45;0b&#45;ampin&#45;27 -->
<g id="node16" class="node">
<title>nid&#45;0b&#45;ampin&#45;27</title>
<polygon fill="none" stroke="#c8c8c8" points="917.79,-584 795.11,-607 795.11,-561 917.79,-584"/>
<text text-anchor="middle" x="836" y="-580.3" font-family="Times,serif" font-size="14.00">3 (0x1b)</text>
</g>
<!-- nid&#45;0b&#45;ampin&#45;27&#45;&gt;nid&#45;0b -->
<g id="edge10" class="edge">
<title>nid&#45;0b&#45;ampin&#45;27&#45;&gt;nid&#45;0b</title>
<path fill="none" stroke="#c8c8c8" d="M892.76,-588.72C968.4,-595.13 1101.96,-606.44 1170.94,-612.28"/>
<polygon fill="#c8c8c8" stroke="#c8c8c8" points="1171.06,-614.04 1176.19,-612.72 1171.36,-610.56 1171.06,-614.04"/>
</g>
<!-- nid&#45;0b&#45;ampin&#45;29 -->
<g id="node17" class="node">
<title>nid&#45;0b&#45;ampin&#45;29</title>
<polygon fill="none" stroke="#c8c8c8" points="917.79,-456 795.11,-479 795.11,-433 917.79,-456"/>
<text text-anchor="middle" x="836" y="-452.3" font-family="Times,serif" font-size="14.00">4 (0x1d)</text>
</g>
<!-- nid&#45;0b&#45;ampin&#45;29&#45;&gt;nid&#45;0b -->
<g id="edge11" class="edge">
<title>nid&#45;0b&#45;ampin&#45;29&#45;&gt;nid&#45;0b</title>
<path fill="none" stroke="#c8c8c8" d="M863.68,-466.32C879.49,-472.49 899.89,-480.56 917.89,-488 1012.34,-527.02 1122.62,-575.26 1178.47,-599.88"/>
<polygon fill="#c8c8c8" stroke="#c8c8c8" points="1178.1,-601.63 1183.38,-602.05 1179.51,-598.43 1178.1,-601.63"/>
</g>
<!-- nid&#45;18&#45;out -->
<g id="node18" class="node">
<title>nid&#45;18&#45;out</title>
<polygon fill="none" stroke="green" points="530.61,-363 369.61,-363 369.61,-295 530.61,-295 530.61,-363"/>
<text text-anchor="middle" x="450.11" y="-347.8" font-family="Times,serif" font-size="14.00">0x18</text>
<text text-anchor="middle" x="450.11" y="-332.8" font-family="Times,serif" font-size="14.00">[N/A] Speaker at Ext Rear</text>
<text text-anchor="middle" x="450.11" y="-317.8" font-family="Times,serif" font-size="14.00">Stereo</text>
<text text-anchor="middle" x="450.11" y="-302.8" font-family="Times,serif" font-size="14.00">IN Detect</text>
</g>
<!-- nid&#45;18&#45;out&#45;&gt;nid&#45;0b&#45;ampin&#45;24 -->
<g id="edge12" class="edge">
<title>nid&#45;18&#45;out&#45;&gt;nid&#45;0b&#45;ampin&#45;24</title>
<path fill="none" stroke="#333333" d="M522.68,-363.05C530.62,-367.01 538.56,-371.05 546.11,-375 636.54,-422.38 653.3,-445.45 746.11,-488 758.58,-493.72 772.4,-499.12 785.35,-503.8"/>
<polygon fill="#333333" stroke="#333333" points="784.45,-507.19 795.04,-507.23 786.78,-500.59 784.45,-507.19"/>
</g>
<!-- nid&#45;22&#45;ampin&#45;24 -->
<g id="node39" class="node">
<title>nid&#45;22&#45;ampin&#45;24</title>
<polygon fill="none" stroke="#c8c8c8" points="1677.57,-557 1554.89,-580 1554.89,-534 1677.57,-557"/>
<text text-anchor="middle" x="1595.79" y="-553.3" font-family="Times,serif" font-size="14.00">0 (0x18)</text>
</g>
<!-- nid&#45;18&#45;out&#45;&gt;nid&#45;22&#45;ampin&#45;24 -->
<g id="edge42" class="edge">
<title>nid&#45;18&#45;out&#45;&gt;nid&#45;22&#45;ampin&#45;24</title>
<path fill="none" stroke="#333333" d="M530.7,-321.51C685.05,-309.83 1033.82,-297.4 1305.89,-391 1407.07,-425.81 1410.4,-476.74 1505.89,-525 1518.14,-531.19 1531.88,-536.75 1544.83,-541.44"/>
<polygon fill="#333333" stroke="#333333" points="1543.94,-544.83 1554.53,-544.84 1546.26,-538.23 1543.94,-544.83"/>
</g>
<!-- nid&#45;23&#45;ampin&#45;24 -->
<g id="node45" class="node">
<title>nid&#45;23&#45;ampin&#45;24</title>
<polygon fill="none" stroke="#c8c8c8" points="1677.57,-103 1554.89,-126 1554.89,-80 1677.57,-103"/>
<text text-anchor="middle" x="1595.79" y="-99.3" font-family="Times,serif" font-size="14.00">0 (0x18)</text>
</g>
<!-- nid&#45;18&#45;out&#45;&gt;nid&#45;23&#45;ampin&#45;24 -->
<g id="edge55" class="edge">
<title>nid&#45;18&#45;out&#45;&gt;nid&#45;23&#45;ampin&#45;24</title>
<path fill="none" stroke="#333333" d="M530.74,-304.1C656.09,-265.84 907.64,-192.87 1125.89,-153 1276.99,-125.4 1458.47,-111.4 1544.64,-105.89"/>
<polygon fill="#333333" stroke="#333333" points="1544.91,-109.38 1554.67,-105.26 1544.47,-102.39 1544.91,-109.38"/>
</g>
<!-- nid&#45;19&#45;out -->
<g id="node19" class="node">
<title>nid&#45;19&#45;out</title>
<polygon fill="none" stroke="green" points="530.61,-881 369.61,-881 369.61,-813 530.61,-813 530.61,-881"/>
<text text-anchor="middle" x="450.11" y="-865.8" font-family="Times,serif" font-size="14.00">0x19</text>
<text text-anchor="middle" x="450.11" y="-850.8" font-family="Times,serif" font-size="14.00">[N/A] Speaker at Ext Rear</text>
<text text-anchor="middle" x="450.11" y="-835.8" font-family="Times,serif" font-size="14.00">Stereo</text>
<text text-anchor="middle" x="450.11" y="-820.8" font-family="Times,serif" font-size="14.00">IN Detect</text>
</g>
<!-- nid&#45;19&#45;out&#45;&gt;nid&#45;0b&#45;ampin&#45;25 -->
<g id="edge13" class="edge">
<title>nid&#45;19&#45;out&#45;&gt;nid&#45;0b&#45;ampin&#45;25</title>
<path fill="none" stroke="#333333" d="M530.65,-819.03C607.31,-792.07 720.92,-752.12 785.45,-729.42"/>
<polygon fill="#333333" stroke="#333333" points="786.72,-732.69 794.99,-726.07 784.39,-726.09 786.72,-732.69"/>
</g>
<!-- nid&#45;22&#45;ampin&#45;25 -->
<g id="node40" class="node">
<title>nid&#45;22&#45;ampin&#45;25</title>
<polygon fill="none" stroke="#c8c8c8" points="1677.57,-813 1554.89,-836 1554.89,-790 1677.57,-813"/>
<text text-anchor="middle" x="1595.79" y="-809.3" font-family="Times,serif" font-size="14.00">1 (0x19)</text>
</g>
<!-- nid&#45;19&#45;out&#45;&gt;nid&#45;22&#45;ampin&#45;25 -->
<g id="edge43" class="edge">
<title>nid&#45;19&#45;out&#45;&gt;nid&#45;22&#45;ampin&#45;25</title>
<path fill="none" stroke="#333333" d="M530.78,-851.58C682.06,-859.38 1021.26,-872.61 1305.89,-853 1390.24,-847.19 1487.46,-831.94 1544.87,-822.04"/>
<polygon fill="#333333" stroke="#333333" points="1545.52,-825.48 1554.77,-820.32 1544.32,-818.58 1545.52,-825.48"/>
</g>
<!-- nid&#45;23&#45;ampin&#45;25 -->
<g id="node46" class="node">
<title>nid&#45;23&#45;ampin&#45;25</title>
<polygon fill="none" stroke="#0000ff" points="1677.57,-423 1554.89,-446 1554.89,-400 1677.57,-423"/>
<text text-anchor="middle" x="1595.79" y="-419.3" font-family="Times,serif" font-size="14.00">1 (0x19)</text>
</g>
<!-- nid&#45;19&#45;out&#45;&gt;nid&#45;23&#45;ampin&#45;25 -->
<g id="edge56" class="edge">
<title>nid&#45;19&#45;out&#45;&gt;nid&#45;23&#45;ampin&#45;25</title>
<path fill="none" stroke="#333333" d="M530.95,-848.69C717.72,-851.26 1177.01,-849.21 1305.89,-771 1447.02,-685.35 1378.43,-562.91 1505.89,-458 1517.23,-448.67 1531.35,-441.61 1544.98,-436.36"/>
<polygon fill="#333333" stroke="#333333" points="1546.54,-439.52 1554.77,-432.85 1544.18,-432.93 1546.54,-439.52"/>
</g>
<!-- nid&#45;1a&#45;out -->
<g id="node20" class="node">
<title>nid&#45;1a&#45;out</title>
<polygon fill="none" stroke="green" points="530.61,-789 369.61,-789 369.61,-721 530.61,-721 530.61,-789"/>
<text text-anchor="middle" x="450.11" y="-773.8" font-family="Times,serif" font-size="14.00">0x1a</text>
<text text-anchor="middle" x="450.11" y="-758.8" font-family="Times,serif" font-size="14.00">[N/A] Speaker at Ext Rear</text>
<text text-anchor="middle" x="450.11" y="-743.8" font-family="Times,serif" font-size="14.00">Stereo</text>
<text text-anchor="middle" x="450.11" y="-728.8" font-family="Times,serif" font-size="14.00">IN Detect</text>
</g>
<!-- nid&#45;1a&#45;out&#45;&gt;nid&#45;0b&#45;ampin&#45;26 -->
<g id="edge14" class="edge">
<title>nid&#45;1a&#45;out&#45;&gt;nid&#45;0b&#45;ampin&#45;26</title>
<path fill="none" stroke="#333333" d="M530.65,-732.83C607.37,-711.45 721.07,-679.76 785.58,-661.77"/>
<polygon fill="#333333" stroke="#333333" points="786.8,-665.07 795.5,-659.01 784.92,-658.32 786.8,-665.07"/>
</g>
<!-- nid&#45;22&#45;ampin&#45;26 -->
<g id="node41" class="node">
<title>nid&#45;22&#45;ampin&#45;26</title>
<polygon fill="none" stroke="#c8c8c8" points="1676.47,-749 1555.44,-772 1555.44,-726 1676.47,-749"/>
<text text-anchor="middle" x="1595.79" y="-745.3" font-family="Times,serif" font-size="14.00">2 (0x1a)</text>
</g>
<!-- nid&#45;1a&#45;out&#45;&gt;nid&#45;22&#45;ampin&#45;26 -->
<g id="edge44" class="edge">
<title>nid&#45;1a&#45;out&#45;&gt;nid&#45;22&#45;ampin&#45;26</title>
<path fill="none" stroke="#333333" d="M530.84,-762.56C590.14,-767.79 673.1,-774.28 746.11,-777 994.73,-786.26 1057.39,-789.01 1305.89,-777 1390,-772.93 1487.39,-762.25 1544.89,-755.31"/>
<polygon fill="#333333" stroke="#333333" points="1545.65,-758.75 1555.15,-754.07 1544.8,-751.8 1545.65,-758.75"/>
</g>
<!-- nid&#45;23&#45;ampin&#45;26 -->
<g id="node47" class="node">
<title>nid&#45;23&#45;ampin&#45;26</title>
<polygon fill="none" stroke="#c8c8c8" points="1676.47,-359 1555.44,-382 1555.44,-336 1676.47,-359"/>
<text text-anchor="middle" x="1595.79" y="-355.3" font-family="Times,serif" font-size="14.00">2 (0x1a)</text>
</g>
<!-- nid&#45;1a&#45;out&#45;&gt;nid&#45;23&#45;ampin&#45;26 -->
<g id="edge57" class="edge">
<title>nid&#45;1a&#45;out&#45;&gt;nid&#45;23&#45;ampin&#45;26</title>
<path fill="none" stroke="#333333" d="M530.84,-758.75C730.44,-767.51 1240.35,-785.77 1305.89,-747 1462.09,-654.61 1367.35,-508.22 1505.89,-391 1517.29,-381.36 1531.81,-374.53 1545.81,-369.73"/>
<polygon fill="#333333" stroke="#333333" points="1546.87,-373.06 1555.36,-366.72 1544.77,-366.38 1546.87,-373.06"/>
</g>
<!-- nid&#45;1b&#45;out -->
<g id="node21" class="node">
<title>nid&#45;1b&#45;out</title>
<polygon fill="none" stroke="green" points="533.61,-455 366.61,-455 366.61,-387 533.61,-387 533.61,-455"/>
<text text-anchor="middle" x="450.11" y="-439.8" font-family="Times,serif" font-size="14.00">0x1b</text>
<text text-anchor="middle" x="450.11" y="-424.8" font-family="Times,serif" font-size="14.00">[Jack] Line Out at Ext Rear</text>
<text text-anchor="middle" x="450.11" y="-409.8" font-family="Times,serif" font-size="14.00">Stereo</text>
<text text-anchor="middle" x="450.11" y="-394.8" font-family="Times,serif" font-size="14.00">IN OUT HP EAPD Detect</text>
</g>
<!-- nid&#45;1b&#45;out&#45;&gt;nid&#45;0b&#45;ampin&#45;27 -->
<g id="edge15" class="edge">
<title>nid&#45;1b&#45;out&#45;&gt;nid&#45;0b&#45;ampin&#45;27</title>
<path fill="none" stroke="#333333" d="M523.83,-455.05C583.15,-482.41 669.4,-521.21 746.11,-552 758.72,-557.06 772.49,-562.2 785.33,-566.84"/>
<polygon fill="#333333" stroke="#333333" points="784.35,-570.2 794.94,-570.27 786.7,-563.61 784.35,-570.2"/>
</g>
<!-- nid&#45;22&#45;ampin&#45;27 -->
<g id="node42" class="node">
<title>nid&#45;22&#45;ampin&#45;27</title>
<polygon fill="none" stroke="#c8c8c8" points="1677.57,-621 1554.89,-644 1554.89,-598 1677.57,-621"/>
<text text-anchor="middle" x="1595.79" y="-617.3" font-family="Times,serif" font-size="14.00">3 (0x1b)</text>
</g>
<!-- nid&#45;1b&#45;out&#45;&gt;nid&#45;22&#45;ampin&#45;27 -->
<g id="edge45" class="edge">
<title>nid&#45;1b&#45;out&#45;&gt;nid&#45;22&#45;ampin&#45;27</title>
<path fill="none" stroke="#333333" d="M533.81,-413.88C719.84,-398.99 1165.93,-370.02 1305.89,-421 1414.97,-460.73 1405.27,-531.11 1505.89,-589 1517.9,-595.91 1531.66,-601.74 1544.71,-606.46"/>
<polygon fill="#333333" stroke="#333333" points="1543.92,-609.89 1554.52,-609.85 1546.21,-603.27 1543.92,-609.89"/>
</g>
<!-- nid&#45;23&#45;ampin&#45;27 -->
<g id="node48" class="node">
<title>nid&#45;23&#45;ampin&#45;27</title>
<polygon fill="none" stroke="#c8c8c8" points="1677.57,-167 1554.89,-190 1554.89,-144 1677.57,-167"/>
<text text-anchor="middle" x="1595.79" y="-163.3" font-family="Times,serif" font-size="14.00">3 (0x1b)</text>
</g>
<!-- nid&#45;1b&#45;out&#45;&gt;nid&#45;23&#45;ampin&#45;27 -->
<g id="edge58" class="edge">
<title>nid&#45;1b&#45;out&#45;&gt;nid&#45;23&#45;ampin&#45;27</title>
<path fill="none" stroke="#333333" d="M523.95,-386.96C645.51,-332.08 898.85,-225.86 1125.89,-183 1276.26,-154.61 1458.44,-159.27 1544.77,-163.76"/>
<polygon fill="#333333" stroke="#333333" points="1544.64,-167.26 1554.82,-164.31 1545.02,-160.27 1544.64,-167.26"/>
</g>
<!-- nid&#45;1d&#45;out -->
<g id="node22" class="node">
<title>nid&#45;1d&#45;out</title>
<polygon fill="none" stroke="green" points="538.11,-271 362.11,-271 362.11,-203 538.11,-203 538.11,-271"/>
<text text-anchor="middle" x="450.11" y="-255.8" font-family="Times,serif" font-size="14.00">0x1d</text>
<text text-anchor="middle" x="450.11" y="-240.8" font-family="Times,serif" font-size="14.00">[N/A] SPDIF Out at Ext N/A</text>
<text text-anchor="middle" x="450.11" y="-225.8" font-family="Times,serif" font-size="14.00">Mono</text>
<text text-anchor="middle" x="450.11" y="-210.8" font-family="Times,serif" font-size="14.00">IN</text>
</g>
<!-- nid&#45;1d&#45;out&#45;&gt;nid&#45;0b&#45;ampin&#45;29 -->
<g id="edge16" class="edge">
<title>nid&#45;1d&#45;out&#45;&gt;nid&#45;0b&#45;ampin&#45;29</title>
<path fill="none" stroke="#333333" d="M523.29,-271.12C531.04,-275.03 538.77,-279.04 546.11,-283 635.21,-331.13 736.01,-393.34 791.88,-428.54"/>
<polygon fill="#333333" stroke="#333333" points="790.12,-431.57 800.45,-433.95 793.86,-425.65 790.12,-431.57"/>
</g>
<!-- nid&#45;22&#45;ampin&#45;29 -->
<g id="node43" class="node">
<title>nid&#45;22&#45;ampin&#45;29</title>
<polygon fill="none" stroke="#c8c8c8" points="1677.57,-493 1554.89,-516 1554.89,-470 1677.57,-493"/>
<text text-anchor="middle" x="1595.79" y="-489.3" font-family="Times,serif" font-size="14.00">4 (0x1d)</text>
</g>
<!-- nid&#45;1d&#45;out&#45;&gt;nid&#45;22&#45;ampin&#45;29 -->
<g id="edge46" class="edge">
<title>nid&#45;1d&#45;out&#45;&gt;nid&#45;22&#45;ampin&#45;29</title>
<path fill="none" stroke="#333333" d="M538.28,-236.08C695.81,-236.9 1036.56,-250.19 1305.89,-341 1403.48,-373.9 1413.26,-413 1505.89,-458 1518.38,-464.06 1532.2,-469.9 1545.14,-475.02"/>
<polygon fill="#333333" stroke="#333333" points="1544.25,-478.42 1554.84,-478.78 1546.78,-471.9 1544.25,-478.42"/>
</g>
<!-- nid&#45;23&#45;ampin&#45;29 -->
<g id="node49" class="node">
<title>nid&#45;23&#45;ampin&#45;29</title>
<polygon fill="none" stroke="#c8c8c8" points="1677.57,-39 1554.89,-62 1554.89,-16 1677.57,-39"/>
<text text-anchor="middle" x="1595.79" y="-35.3" font-family="Times,serif" font-size="14.00">4 (0x1d)</text>
</g>
<!-- nid&#45;1d&#45;out&#45;&gt;nid&#45;23&#45;ampin&#45;29 -->
<g id="edge59" class="edge">
<title>nid&#45;1d&#45;out&#45;&gt;nid&#45;23&#45;ampin&#45;29</title>
<path fill="none" stroke="#333333" d="M508.99,-202.99C566.87,-170.83 659.51,-124.26 746.11,-102 1041.12,-26.16 1411.39,-31.61 1544.37,-36.61"/>
<polygon fill="#333333" stroke="#333333" points="1544.51,-40.12 1554.64,-37.01 1544.79,-33.12 1544.51,-40.12"/>
</g>
<!-- nid&#45;0c -->
<g id="node23" class="node">
<title>nid&#45;0c</title>
<polygon fill="none" stroke="black" points="1977.1,-1028 1956.21,-1059.05 1914.43,-1059.05 1893.54,-1028 1914.43,-996.95 1956.21,-996.95 1977.1,-1028"/>
<text text-anchor="middle" x="1935.32" y="-1031.8" font-family="Times,serif" font-size="14.00">0x0c</text>
<text text-anchor="middle" x="1935.32" y="-1016.8" font-family="Times,serif" font-size="14.00">Stereo</text>
</g>
<!-- nid&#45;14&#45;in -->
<g id="node32" class="node">
<title>nid&#45;14&#45;in</title>
<polygon fill="none" stroke="green" points="2357.96,-1154 2194.96,-1154 2194.96,-1086 2357.96,-1086 2357.96,-1154"/>
<text text-anchor="middle" x="2276.46" y="-1138.8" font-family="Times,serif" font-size="14.00">0x14</text>
<text text-anchor="middle" x="2276.46" y="-1123.8" font-family="Times,serif" font-size="14.00">[Fixed] Speaker at Int N/A</text>
<text text-anchor="middle" x="2276.46" y="-1108.8" font-family="Times,serif" font-size="14.00">Stereo</text>
<text text-anchor="middle" x="2276.46" y="-1093.8" font-family="Times,serif" font-size="14.00">OUT EAPD Detect</text>
</g>
<!-- nid&#45;0c&#45;&gt;nid&#45;14&#45;in -->
<g id="edge27" class="edge">
<title>nid&#45;0c&#45;&gt;nid&#45;14&#45;in</title>
<path fill="none" stroke="#333333" d="M1971.02,-1037.41C2020.92,-1050.95 2114.68,-1076.38 2185.02,-1095.47"/>
<polygon fill="#333333" stroke="#333333" points="2184.22,-1098.87 2194.78,-1098.11 2186.05,-1092.12 2184.22,-1098.87"/>
</g>
<!-- nid&#45;1b&#45;in -->
<g id="node34" class="node">
<title>nid&#45;1b&#45;in</title>
<polygon fill="none" stroke="green" points="2359.96,-1062 2192.96,-1062 2192.96,-994 2359.96,-994 2359.96,-1062"/>
<text text-anchor="middle" x="2276.46" y="-1046.8" font-family="Times,serif" font-size="14.00">0x1b</text>
<text text-anchor="middle" x="2276.46" y="-1031.8" font-family="Times,serif" font-size="14.00">[Jack] Line Out at Ext Rear</text>
<text text-anchor="middle" x="2276.46" y="-1016.8" font-family="Times,serif" font-size="14.00">Stereo</text>
<text text-anchor="middle" x="2276.46" y="-1001.8" font-family="Times,serif" font-size="14.00">IN OUT HP EAPD Detect</text>
</g>
<!-- nid&#45;0c&#45;&gt;nid&#45;1b&#45;in -->
<g id="edge31" class="edge">
<title>nid&#45;0c&#45;&gt;nid&#45;1b&#45;in</title>
<path fill="none" stroke="gray" stroke-dasharray="5,2" d="M1977.23,-1028C2027.84,-1028 2115.53,-1028 2182.77,-1028"/>
<polygon fill="gray" stroke="gray" points="2182.96,-1031.5 2192.96,-1028 2182.96,-1024.5 2182.96,-1031.5"/>
</g>
<!-- nid&#45;21&#45;in -->
<g id="node38" class="node">
<title>nid&#45;21&#45;in</title>
<polygon fill="none" stroke="green" points="2357.96,-970 2194.96,-970 2194.96,-902 2357.96,-902 2357.96,-970"/>
<text text-anchor="middle" x="2276.46" y="-954.8" font-family="Times,serif" font-size="14.00">0x21</text>
<text text-anchor="middle" x="2276.46" y="-939.8" font-family="Times,serif" font-size="14.00">[Jack] HP Out at Ext Front</text>
<text text-anchor="middle" x="2276.46" y="-924.8" font-family="Times,serif" font-size="14.00">Stereo</text>
<text text-anchor="middle" x="2276.46" y="-909.8" font-family="Times,serif" font-size="14.00">OUT HP EAPD Detect</text>
</g>
<!-- nid&#45;0c&#45;&gt;nid&#45;21&#45;in -->
<g id="edge34" class="edge">
<title>nid&#45;0c&#45;&gt;nid&#45;21&#45;in</title>
<path fill="none" stroke="gray" stroke-dasharray="5,2" d="M1971.02,-1018.59C2020.92,-1005.05 2114.68,-979.62 2185.02,-960.53"/>
<polygon fill="gray" stroke="gray" points="2186.05,-963.88 2194.78,-957.89 2184.22,-957.13 2186.05,-963.88"/>
</g>
<!-- nid&#45;0c&#45;ampin&#45;2&#45;&gt;nid&#45;0c -->
<g id="edge17" class="edge">
<title>nid&#45;0c&#45;ampin&#45;2&#45;&gt;nid&#45;0c</title>
<path fill="none" stroke="#0000ff" d="M1640.91,-1074.07C1706.18,-1063.82 1827.63,-1044.75 1891.9,-1034.66"/>
<polygon fill="#0000ff" stroke="#0000ff" points="1892.52,-1036.34 1897.18,-1033.83 1891.97,-1032.88 1892.52,-1036.34"/>
</g>
<!-- nid&#45;0c&#45;ampin&#45;11&#45;&gt;nid&#45;0c -->
<g id="edge18" class="edge">
<title>nid&#45;0c&#45;ampin&#45;11&#45;&gt;nid&#45;0c</title>
<path fill="none" stroke="#c8c8c8" d="M1665.91,-1019.25C1732.74,-1021.43 1832.07,-1024.67 1889.28,-1026.53"/>
<polygon fill="#c8c8c8" stroke="#c8c8c8" points="1889.29,-1028.28 1894.35,-1026.7 1889.41,-1024.79 1889.29,-1028.28"/>
</g>
<!-- nid&#45;0d -->
<g id="node26" class="node">
<title>nid&#45;0d</title>
<polygon fill="none" stroke="black" points="1977.1,-936 1956.21,-967.05 1914.43,-967.05 1893.54,-936 1914.43,-904.95 1956.21,-904.95 1977.1,-936"/>
<text text-anchor="middle" x="1935.32" y="-939.8" font-family="Times,serif" font-size="14.00">0x0d</text>
<text text-anchor="middle" x="1935.32" y="-924.8" font-family="Times,serif" font-size="14.00">Stereo</text>
</g>
<!-- nid&#45;0f&#45;ampin&#45;13 -->
<g id="node30" class="node">
<title>nid&#45;0f&#45;ampin&#45;13</title>
<polygon fill="none" stroke="#0000ff" points="2358.25,-847 2235.57,-870 2235.57,-824 2358.25,-847"/>
<text text-anchor="middle" x="2276.46" y="-843.3" font-family="Times,serif" font-size="14.00">0 (0x0d)</text>
</g>
<!-- nid&#45;0d&#45;&gt;nid&#45;0f&#45;ampin&#45;13 -->
<g id="edge26" class="edge">
<title>nid&#45;0d&#45;&gt;nid&#45;0f&#45;ampin&#45;13</title>
<path fill="none" stroke="#333333" d="M1971.02,-926.89C2031.36,-911.06 2155.82,-878.4 2225.47,-860.12"/>
<polygon fill="#333333" stroke="#333333" points="2226.55,-863.45 2235.33,-857.53 2224.77,-856.68 2226.55,-863.45"/>
</g>
<!-- nid&#45;0d&#45;&gt;nid&#45;1b&#45;in -->
<g id="edge32" class="edge">
<title>nid&#45;0d&#45;&gt;nid&#45;1b&#45;in</title>
<path fill="none" stroke="#333333" d="M1971.02,-945.41C2020.44,-958.82 2112.87,-983.89 2182.97,-1002.91"/>
<polygon fill="#333333" stroke="#333333" points="2182.14,-1006.31 2192.71,-1005.55 2183.97,-999.55 2182.14,-1006.31"/>
</g>
<!-- nid&#45;0d&#45;&gt;nid&#45;21&#45;in -->
<g id="edge35" class="edge">
<title>nid&#45;0d&#45;&gt;nid&#45;21&#45;in</title>
<path fill="none" stroke="#333333" d="M1977.23,-936C2028.25,-936 2116.99,-936 2184.44,-936"/>
<polygon fill="#333333" stroke="#333333" points="2184.65,-939.5 2194.65,-936 2184.65,-932.5 2184.65,-939.5"/>
</g>
<!-- nid&#45;0d&#45;ampin&#45;3&#45;&gt;nid&#45;0d -->
<g id="edge21" class="edge">
<title>nid&#45;0d&#45;ampin&#45;3&#45;&gt;nid&#45;0d</title>
<path fill="none" stroke="#0000ff" d="M1665.91,-944.75C1732.74,-942.57 1832.07,-939.33 1889.28,-937.47"/>
<polygon fill="#0000ff" stroke="#0000ff" points="1889.41,-939.21 1894.35,-937.3 1889.29,-935.72 1889.41,-939.21"/>
</g>
<!-- nid&#45;0d&#45;ampin&#45;11&#45;&gt;nid&#45;0d -->
<g id="edge22" class="edge">
<title>nid&#45;0d&#45;ampin&#45;11&#45;&gt;nid&#45;0d</title>
<path fill="none" stroke="#c8c8c8" d="M1640.91,-889.93C1706.18,-900.18 1827.63,-919.25 1891.9,-929.34"/>
<polygon fill="#c8c8c8" stroke="#c8c8c8" points="1891.97,-931.12 1897.18,-930.17 1892.52,-927.66 1891.97,-931.12"/>
</g>
<!-- nid&#45;0f -->
<g id="node29" class="node">
<title>nid&#45;0f</title>
<polygon fill="none" stroke="black" points="2657.44,-847 2637.11,-878.05 2596.46,-878.05 2576.14,-847 2596.46,-815.95 2637.11,-815.95 2657.44,-847"/>
<text text-anchor="middle" x="2616.79" y="-850.8" font-family="Times,serif" font-size="14.00">0x0f</text>
<text text-anchor="middle" x="2616.79" y="-835.8" font-family="Times,serif" font-size="14.00">Mono</text>
</g>
<!-- nid&#45;17&#45;in -->
<g id="node33" class="node">
<title>nid&#45;17&#45;in</title>
<polygon fill="none" stroke="green" points="3034.61,-881 2873.61,-881 2873.61,-813 3034.61,-813 3034.61,-881"/>
<text text-anchor="middle" x="2954.11" y="-865.8" font-family="Times,serif" font-size="14.00">0x17</text>
<text text-anchor="middle" x="2954.11" y="-850.8" font-family="Times,serif" font-size="14.00">[N/A] Speaker at Ext Rear</text>
<text text-anchor="middle" x="2954.11" y="-835.8" font-family="Times,serif" font-size="14.00">Mono</text>
<text text-anchor="middle" x="2954.11" y="-820.8" font-family="Times,serif" font-size="14.00">OUT</text>
</g>
<!-- nid&#45;0f&#45;&gt;nid&#45;17&#45;in -->
<g id="edge28" class="edge">
<title>nid&#45;0f&#45;&gt;nid&#45;17&#45;in</title>
<path fill="none" stroke="#333333" d="M2657.57,-847C2707.98,-847 2796.37,-847 2863.38,-847"/>
<polygon fill="#333333" stroke="#333333" points="2863.53,-850.5 2873.53,-847 2863.53,-843.5 2863.53,-850.5"/>
</g>
<!-- nid&#45;0f&#45;ampin&#45;13&#45;&gt;nid&#45;0f -->
<g id="edge25" class="edge">
<title>nid&#45;0f&#45;ampin&#45;13&#45;&gt;nid&#45;0f</title>
<path fill="none" stroke="#0000ff" d="M2358.5,-847C2424.97,-847 2516.63,-847 2570.7,-847"/>
<polygon fill="#0000ff" stroke="#0000ff" points="2570.82,-848.75 2575.82,-847 2570.82,-845.25 2570.82,-848.75"/>
</g>
<!-- nid&#45;12&#45;out -->
<g id="node31" class="node">
<title>nid&#45;12&#45;out</title>
<polygon fill="none" stroke="green" points="1297.89,-263 1133.89,-263 1133.89,-195 1297.89,-195 1297.89,-263"/>
<text text-anchor="middle" x="1215.89" y="-247.8" font-family="Times,serif" font-size="14.00">0x12</text>
<text text-anchor="middle" x="1215.89" y="-232.8" font-family="Times,serif" font-size="14.00">[N/A] Line Out at Ext N/A</text>
<text text-anchor="middle" x="1215.89" y="-217.8" font-family="Times,serif" font-size="14.00">Stereo</text>
<text text-anchor="middle" x="1215.89" y="-202.8" font-family="Times,serif" font-size="14.00">IN</text>
</g>
<!-- nid&#45;23&#45;ampin&#45;18 -->
<g id="node51" class="node">
<title>nid&#45;23&#45;ampin&#45;18</title>
<polygon fill="none" stroke="#c8c8c8" points="1677.57,-231 1554.89,-254 1554.89,-208 1677.57,-231"/>
<text text-anchor="middle" x="1595.79" y="-227.3" font-family="Times,serif" font-size="14.00">6 (0x12)</text>
</g>
<!-- nid&#45;12&#45;out&#45;&gt;nid&#45;23&#45;ampin&#45;18 -->
<g id="edge61" class="edge">
<title>nid&#45;12&#45;out&#45;&gt;nid&#45;23&#45;ampin&#45;18</title>
<path fill="none" stroke="#333333" d="M1297.96,-229.43C1372.74,-229.82 1481.42,-230.4 1544.42,-230.73"/>
<polygon fill="#333333" stroke="#333333" points="1544.49,-234.23 1554.51,-230.79 1544.53,-227.23 1544.49,-234.23"/>
</g>
<!-- nid&#45;1b&#45;ampout -->
<g id="node35" class="node">
<title>nid&#45;1b&#45;ampout</title>
<polygon fill="none" stroke="#0000ff" points="2643.79,-1028 2603.29,-1046 2603.29,-1010 2643.79,-1028"/>
</g>
<!-- nid&#45;1b&#45;in&#45;&gt;nid&#45;1b&#45;ampout -->
<g id="edge29" class="edge">
<title>nid&#45;1b&#45;in&#45;&gt;nid&#45;1b&#45;ampout</title>
<path fill="none" stroke="#0000ff" d="M2360.22,-1028C2439.77,-1028 2554.15,-1028 2597.87,-1028"/>
<polygon fill="#0000ff" stroke="#0000ff" points="2598.08,-1029.75 2603.08,-1028 2598.08,-1026.25 2598.08,-1029.75"/>
</g>
<!-- nid&#45;1b&#45;ampin -->
<g id="node36" class="node">
<title>nid&#45;1b&#45;ampin</title>
<polygon fill="none" stroke="#0000ff" points="108.05,-421 67.55,-439 67.55,-403 108.05,-421"/>
</g>
<!-- nid&#45;1b&#45;ampin&#45;&gt;nid&#45;1b&#45;out -->
<g id="edge30" class="edge">
<title>nid&#45;1b&#45;ampin&#45;&gt;nid&#45;1b&#45;out</title>
<path fill="none" stroke="#0000ff" d="M108.16,-421C160.08,-421 278.43,-421 361.03,-421"/>
<polygon fill="#0000ff" stroke="#0000ff" points="361.42,-422.75 366.42,-421 361.42,-419.25 361.42,-422.75"/>
</g>
<!-- nid&#45;22&#45;ampin&#45;24&#45;&gt;nid&#45;22 -->
<g id="edge36" class="edge">
<title>nid&#45;22&#45;ampin&#45;24&#45;&gt;nid&#45;22</title>
<path fill="none" stroke="#c8c8c8" d="M1629.15,-566.2C1691.39,-583.91 1827.54,-622.63 1894.93,-641.8"/>
<polygon fill="#c8c8c8" stroke="#c8c8c8" points="1894.76,-643.57 1900.05,-643.25 1895.72,-640.2 1894.76,-643.57"/>
</g>
<!-- nid&#45;22&#45;ampin&#45;25&#45;&gt;nid&#45;22 -->
<g id="edge37" class="edge">
<title>nid&#45;22&#45;ampin&#45;25&#45;&gt;nid&#45;22</title>
<path fill="none" stroke="#c8c8c8" d="M1623.99,-802.91C1639.8,-796.88 1660.02,-788.88 1677.68,-781 1758.51,-744.94 1850.83,-697.24 1899.71,-671.45"/>
<polygon fill="#c8c8c8" stroke="#c8c8c8" points="1900.7,-672.91 1904.3,-669.03 1899.06,-669.81 1900.7,-672.91"/>
</g>
<!-- nid&#45;22&#45;ampin&#45;26&#45;&gt;nid&#45;22 -->
<g id="edge38" class="edge">
<title>nid&#45;22&#45;ampin&#45;26&#45;&gt;nid&#45;22</title>
<path fill="none" stroke="#c8c8c8" d="M1628.84,-739.88C1690.91,-722.23 1827.31,-683.44 1894.84,-664.23"/>
<polygon fill="#c8c8c8" stroke="#c8c8c8" points="1895.64,-665.82 1899.97,-662.77 1894.69,-662.45 1895.64,-665.82"/>
</g>
<!-- nid&#45;22&#45;ampin&#45;27&#45;&gt;nid&#45;22 -->
<g id="edge39" class="edge">
<title>nid&#45;22&#45;ampin&#45;27&#45;&gt;nid&#45;22</title>
<path fill="none" stroke="#c8c8c8" d="M1650.64,-626.11C1717.26,-632.42 1829.38,-643.05 1890.82,-648.88"/>
<polygon fill="#c8c8c8" stroke="#c8c8c8" points="1890.73,-650.63 1895.88,-649.36 1891.07,-647.14 1890.73,-650.63"/>
</g>
<!-- nid&#45;22&#45;ampin&#45;29&#45;&gt;nid&#45;22 -->
<g id="edge40" class="edge">
<title>nid&#45;22&#45;ampin&#45;29&#45;&gt;nid&#45;22</title>
<path fill="none" stroke="#c8c8c8" d="M1623.99,-503.09C1639.8,-509.12 1660.02,-517.12 1677.68,-525 1758.51,-561.06 1850.83,-608.76 1899.71,-634.55"/>
<polygon fill="#c8c8c8" stroke="#c8c8c8" points="1899.06,-636.19 1904.3,-636.97 1900.7,-633.09 1899.06,-636.19"/>
</g>
<!-- nid&#45;22&#45;ampin&#45;11&#45;&gt;nid&#45;22 -->
<g id="edge41" class="edge">
<title>nid&#45;22&#45;ampin&#45;11&#45;&gt;nid&#45;22</title>
<path fill="none" stroke="#c8c8c8" d="M1650.64,-679.89C1717.26,-673.58 1829.38,-662.95 1890.82,-657.12"/>
<polygon fill="#c8c8c8" stroke="#c8c8c8" points="1891.07,-658.86 1895.88,-656.64 1890.73,-655.37 1891.07,-658.86"/>
</g>
<!-- nid&#45;23&#45;ampin&#45;24&#45;&gt;nid&#45;23 -->
<g id="edge48" class="edge">
<title>nid&#45;23&#45;ampin&#45;24&#45;&gt;nid&#45;23</title>
<path fill="none" stroke="#c8c8c8" d="M1623.55,-113.15C1683.4,-135.84 1828.14,-190.73 1896.88,-216.8"/>
<polygon fill="#c8c8c8" stroke="#c8c8c8" points="1896.4,-218.49 1901.69,-218.63 1897.64,-215.22 1896.4,-218.49"/>
</g>
<!-- nid&#45;23&#45;ampin&#45;25&#45;&gt;nid&#45;23 -->
<g id="edge49" class="edge">
<title>nid&#45;23&#45;ampin&#45;25&#45;&gt;nid&#45;23</title>
<path fill="none" stroke="#0000ff" d="M1625.41,-413.12C1641.14,-407.33 1660.82,-399.5 1677.68,-391 1762.1,-348.43 1854.73,-286.59 1902.26,-253.64"/>
<polygon fill="#0000ff" stroke="#0000ff" points="1903.33,-255.03 1906.44,-250.74 1901.33,-252.16 1903.33,-255.03"/>
</g>
<!-- nid&#45;23&#45;ampin&#45;26&#45;&gt;nid&#45;23 -->
<g id="edge50" class="edge">
<title>nid&#45;23&#45;ampin&#45;26&#45;&gt;nid&#45;23</title>
<path fill="none" stroke="#c8c8c8" d="M1623.55,-348.85C1683.4,-326.16 1828.14,-271.27 1896.88,-245.2"/>
<polygon fill="#c8c8c8" stroke="#c8c8c8" points="1897.64,-246.78 1901.69,-243.37 1896.4,-243.51 1897.64,-246.78"/>
</g>
<!-- nid&#45;23&#45;ampin&#45;27&#45;&gt;nid&#45;23 -->
<g id="edge51" class="edge">
<title>nid&#45;23&#45;ampin&#45;27&#45;&gt;nid&#45;23</title>
<path fill="none" stroke="#c8c8c8" d="M1637.17,-174.66C1701.8,-186.91 1827.84,-210.81 1893.04,-223.17"/>
<polygon fill="#c8c8c8" stroke="#c8c8c8" points="1892.77,-224.9 1898.01,-224.11 1893.42,-221.46 1892.77,-224.9"/>
</g>
<!-- nid&#45;23&#45;ampin&#45;29&#45;&gt;nid&#45;23 -->
<g id="edge52" class="edge">
<title>nid&#45;23&#45;ampin&#45;29&#45;&gt;nid&#45;23</title>
<path fill="none" stroke="#c8c8c8" d="M1625.41,-48.88C1641.14,-54.67 1660.82,-62.5 1677.68,-71 1762.1,-113.57 1854.73,-175.41 1902.26,-208.36"/>
<polygon fill="#c8c8c8" stroke="#c8c8c8" points="1901.33,-209.84 1906.44,-211.26 1903.33,-206.97 1901.33,-209.84"/>
</g>
<!-- nid&#45;23&#45;ampin&#45;11&#45;&gt;nid&#45;23 -->
<g id="edge53" class="edge">
<title>nid&#45;23&#45;ampin&#45;11&#45;&gt;nid&#45;23</title>
<path fill="none" stroke="#c8c8c8" d="M1637.17,-287.34C1701.8,-275.09 1827.84,-251.19 1893.04,-238.83"/>
<polygon fill="#c8c8c8" stroke="#c8c8c8" points="1893.42,-240.54 1898.01,-237.89 1892.77,-237.1 1893.42,-240.54"/>
</g>
<!-- nid&#45;23&#45;ampin&#45;18&#45;&gt;nid&#45;23 -->
<g id="edge54" class="edge">
<title>nid&#45;23&#45;ampin&#45;18&#45;&gt;nid&#45;23</title>
<path fill="none" stroke="#c8c8c8" d="M1677.63,-231C1743.57,-231 1834.36,-231 1888.42,-231"/>
<polygon fill="#c8c8c8" stroke="#c8c8c8" points="1888.53,-232.75 1893.53,-231 1888.53,-229.25 1888.53,-232.75"/>
</g>
</g>
</svg>
